<?xml version="1.0" encoding="utf-8"?>
<!-- Generator: Adobe Illustrator 17.0.0, SVG Export Plug-In . SVG Version: 6.00 Build 0)  -->
<!DOCTYPE svg PUBLIC "-//W3C//DTD SVG 1.1//EN" "http://www.w3.org/Graphics/SVG/1.1/DTD/svg11.dtd">
<svg version="1.1" id="Layer_1" xmlns="http://www.w3.org/2000/svg" xmlns:xlink="http://www.w3.org/1999/xlink" x="0px" y="0px"
	 width="100px" height="100px" viewBox="0 0 100 100" enable-background="new 0 0 100 100" xml:space="preserve">
<path fill="#FFFFFF" d="M56.558,84.771c-10.939,0-21.877,0.027-32.815-0.008C14.12,84.732,5.8,77.948,3.922,68.547
	C2.726,62.558,3.836,56.809,6,51.179c4.373-11.378,9.922-22.19,15.659-32.916c1.081-2.02,2.875-3.02,5.121-3.023
	c15.449-0.026,30.898-0.024,46.347-0.002c2.184,0.003,3.91,0.989,5.046,2.878c5.779,9.605,11.575,19.199,17.299,28.838
	c1.942,3.271,1.203,7.922-1.418,10.583c-0.345,0.351-0.595,0.958-0.602,1.451c-0.05,3.664-0.063,7.329,0.008,10.993
	c0.012,0.577,0.376,1.279,0.801,1.693c2.443,2.378,3.046,7.872,1.067,10.639c-1.287,1.799-3.104,2.471-5.277,2.467
	C78.886,84.76,67.722,84.771,56.558,84.771z M90.685,76.002c-0.835,0-1.499,0-2.164,0c-12.182,0-24.363,0.001-36.544,0
	c-9.475,0-18.949,0.043-28.423-0.018c-7.191-0.046-12.579-6.92-11.004-13.903c1.245-5.521,5.725-9.016,11.677-9.02
	c21.374-0.015,42.749-0.006,64.122-0.012c0.768-0.001,1.535-0.073,2.734-0.133c-0.368-1.518-0.393-2.944-1.024-4.016
	c-5.29-8.98-10.701-17.889-16.042-26.84c-0.519-0.869-1.084-1.252-2.135-1.249c-14.607,0.033-29.213,0.032-43.82,0.001
	c-1.041-0.002-1.646,0.309-2.104,1.256c-4.198,8.661-8.582,17.237-12.599,25.981c-2.292,4.987-4.378,10.094-4.277,15.834
	c0.157,8.899,6.362,15.266,15.245,15.27c21.487,0.012,42.974,0.005,64.46,0.001c0.603,0,1.205-0.051,1.899-0.082
	C90.685,78.049,90.685,77.171,90.685,76.002z M87.737,55.689c-0.876,0-1.594,0-2.312,0c-15.382,0-30.764,0-46.146,0
	c-5.127,0.001-10.255-0.039-15.381,0.019c-3.238,0.036-5.785,1.407-7.681,4.406c23.99,0,47.715,0,71.52,0
	C87.737,58.666,87.737,57.33,87.737,55.689z M16.168,68.969c2.184,3.142,4.892,4.408,8.279,4.407
	c19.889-0.006,39.777-0.002,59.666-0.002c3.911,0,3.913,0,3.671-3.907c-0.01-0.152-0.107-0.3-0.182-0.498
	C63.9,68.969,40.218,68.969,16.168,68.969z M87.745,62.775c-0.744,0-1.35,0-1.955,0c-22.874,0-45.748,0-68.622,0
	c-0.451,0-0.915-0.055-1.347,0.038c-0.273,0.059-0.604,0.291-0.725,0.536c-0.806,1.627,0.032,2.971,1.826,2.971
	c22.987,0.001,45.973,0.001,68.96,0.001c0.598,0,1.195,0,1.862,0C87.745,65.077,87.745,64.075,87.745,62.775z"/>
</svg>
